<?xml version="1.0" encoding="UTF-8"?>
<svg xmlns="http://www.w3.org/2000/svg" xmlns:xlink="http://www.w3.org/1999/xlink" width="91px" height="91px" viewBox="0 0 91 91" version="1.1">
<g id="surface1">
<path style=" stroke:none;fill-rule:nonzero;fill:rgb(255%,153%,0%);fill-opacity:1;" d="M 25.644531 38.054688 C 25.644531 39.175781 25.765625 40.082031 25.976562 40.746094 C 26.21875 41.414062 26.523438 42.140625 26.949219 42.929688 C 27.097656 43.167969 27.160156 43.410156 27.160156 43.625 C 27.160156 43.925781 26.976562 44.230469 26.582031 44.53125 L 24.675781 45.804688 C 24.445312 45.96875 24.171875 46.066406 23.886719 46.078125 C 23.585938 46.078125 23.28125 45.925781 22.980469 45.652344 C 22.574219 45.214844 22.210938 44.738281 21.894531 44.230469 C 21.554688 43.648438 21.242188 43.050781 20.953125 42.445312 C 18.59375 45.226562 15.625 46.617188 12.054688 46.617188 C 9.511719 46.617188 7.484375 45.894531 6.003906 44.441406 C 4.519531 42.984375 3.765625 41.050781 3.765625 38.628906 C 3.765625 36.058594 4.671875 33.964844 6.519531 32.394531 C 8.363281 30.824219 10.8125 30.035156 13.929688 30.035156 C 14.960938 30.035156 16.019531 30.125 17.136719 30.277344 C 18.261719 30.429688 19.414062 30.671875 20.617188 30.945312 L 20.617188 28.734375 C 20.617188 26.433594 20.136719 24.828125 19.195312 23.890625 C 18.230469 22.949219 16.597656 22.5 14.269531 22.5 C 13.207031 22.5 12.113281 22.617188 10.996094 22.890625 C 9.878906 23.164062 8.785156 23.496094 7.726562 23.921875 C 7.382812 24.074219 7.027344 24.207031 6.664062 24.316406 C 6.511719 24.367188 6.347656 24.394531 6.183594 24.402344 C 5.757812 24.402344 5.546875 24.101562 5.546875 23.464844 L 5.546875 21.984375 C 5.546875 21.5 5.609375 21.132812 5.757812 20.921875 C 5.988281 20.648438 6.28125 20.429688 6.609375 20.289062 C 7.667969 19.742188 8.9375 19.289062 10.417969 18.925781 C 11.960938 18.527344 13.550781 18.335938 15.144531 18.351562 C 18.746094 18.351562 21.378906 19.171875 23.074219 20.804688 C 24.738281 22.433594 25.582031 24.917969 25.582031 28.246094 L 25.582031 38.054688 Z M 13.359375 42.65625 C 14.355469 42.65625 15.382812 42.472656 16.476562 42.109375 C 17.5625 41.746094 18.535156 41.082031 19.347656 40.175781 C 19.835938 39.601562 20.199219 38.964844 20.378906 38.234375 C 20.558594 37.511719 20.683594 36.632812 20.683594 35.605469 L 20.683594 34.332031 C 19.765625 34.109375 18.835938 33.9375 17.898438 33.816406 C 16.953125 33.699219 16.003906 33.636719 15.054688 33.636719 C 13.023438 33.636719 11.542969 34.03125 10.539062 34.847656 C 9.542969 35.664062 9.0625 36.8125 9.0625 38.324219 C 9.0625 39.746094 9.421875 40.808594 10.179688 41.535156 C 10.90625 42.292969 11.960938 42.65625 13.359375 42.65625 Z M 37.664062 45.925781 C 37.117188 45.925781 36.753906 45.832031 36.511719 45.621094 C 36.265625 45.4375 36.054688 45.015625 35.871094 44.441406 L 28.761719 21.042969 C 28.625 20.652344 28.535156 20.246094 28.492188 19.832031 C 28.492188 19.34375 28.734375 19.070312 29.214844 19.070312 L 32.183594 19.070312 C 32.757812 19.070312 33.152344 19.167969 33.359375 19.375 C 33.605469 19.558594 33.789062 19.980469 33.964844 20.558594 L 39.054688 40.59375 L 43.773438 20.558594 C 43.925781 19.953125 44.109375 19.558594 44.347656 19.375 C 44.710938 19.152344 45.132812 19.046875 45.5625 19.070312 L 47.980469 19.070312 C 48.554688 19.070312 48.949219 19.167969 49.191406 19.375 C 49.433594 19.558594 49.648438 19.980469 49.765625 20.558594 L 54.546875 40.835938 L 59.785156 20.558594 C 59.964844 19.953125 60.175781 19.558594 60.390625 19.375 C 60.742188 19.152344 61.152344 19.046875 61.570312 19.070312 L 64.386719 19.070312 C 64.867188 19.070312 65.144531 19.320312 65.144531 19.832031 C 65.144531 19.980469 65.109375 20.132812 65.082031 20.316406 C 65.03125 20.574219 64.960938 20.828125 64.867188 21.074219 L 57.578125 44.46875 C 57.394531 45.074219 57.183594 45.464844 56.941406 45.648438 C 56.597656 45.867188 56.195312 45.972656 55.789062 45.953125 L 53.1875 45.953125 C 52.613281 45.953125 52.21875 45.859375 51.972656 45.648438 C 51.734375 45.433594 51.519531 45.042969 51.402344 44.433594 L 46.710938 24.914062 L 42.046875 44.402344 C 41.894531 45.011719 41.714844 45.40625 41.476562 45.617188 C 41.230469 45.828125 40.804688 45.921875 40.265625 45.921875 Z M 76.550781 46.738281 C 74.976562 46.738281 73.402344 46.558594 71.890625 46.199219 C 70.378906 45.832031 69.199219 45.4375 68.410156 44.984375 C 67.925781 44.714844 67.59375 44.410156 67.472656 44.140625 C 67.355469 43.871094 67.292969 43.582031 67.289062 43.289062 L 67.289062 41.746094 C 67.289062 41.113281 67.535156 40.808594 67.984375 40.808594 C 68.167969 40.808594 68.347656 40.839844 68.53125 40.902344 C 68.710938 40.960938 68.984375 41.082031 69.289062 41.203125 C 70.316406 41.660156 71.433594 42.019531 72.617188 42.261719 C 73.828125 42.503906 75.007812 42.625 76.21875 42.625 C 78.125 42.625 79.609375 42.292969 80.636719 41.625 C 81.640625 41.019531 82.242188 39.921875 82.210938 38.75 C 82.234375 37.964844 81.941406 37.199219 81.394531 36.632812 C 80.851562 36.058594 79.820312 35.542969 78.335938 35.058594 L 73.949219 33.691406 C 71.738281 33 70.105469 31.972656 69.105469 30.609375 C 68.132812 29.355469 67.597656 27.808594 67.589844 26.21875 C 67.589844 24.949219 67.867188 23.832031 68.410156 22.859375 C 68.957031 21.894531 69.679688 21.042969 70.589844 20.378906 C 71.5 19.683594 72.523438 19.167969 73.738281 18.808594 C 74.949219 18.441406 76.21875 18.289062 77.550781 18.289062 C 78.214844 18.289062 78.914062 18.320312 79.578125 18.414062 C 80.273438 18.503906 80.90625 18.625 81.542969 18.746094 C 82.148438 18.898438 82.726562 19.050781 83.269531 19.226562 C 83.816406 19.410156 84.238281 19.589844 84.542969 19.773438 C 84.898438 19.953125 85.210938 20.210938 85.453125 20.53125 C 85.648438 20.828125 85.742188 21.175781 85.722656 21.527344 L 85.722656 22.949219 C 85.722656 23.589844 85.480469 23.921875 85.023438 23.921875 C 84.621094 23.875 84.230469 23.75 83.875 23.558594 C 82.046875 22.75 80.066406 22.347656 78.066406 22.378906 C 76.339844 22.378906 74.976562 22.648438 74.039062 23.222656 C 73.097656 23.800781 72.617188 24.675781 72.617188 25.917969 C 72.617188 26.765625 72.921875 27.492188 73.527344 28.066406 C 74.132812 28.640625 75.25 29.21875 76.851562 29.734375 L 81.152344 31.089844 C 83.328125 31.789062 84.90625 32.761719 85.84375 34 C 86.78125 35.238281 87.234375 36.660156 87.234375 38.234375 C 87.234375 39.535156 86.960938 40.71875 86.449219 41.746094 C 85.902344 42.777344 85.175781 43.683594 84.238281 44.410156 C 83.300781 45.171875 82.179688 45.710938 80.878906 46.105469 C 79.515625 46.527344 78.097656 46.738281 76.550781 46.738281 Z M 82.273438 61.453125 C 72.316406 68.808594 57.84375 72.710938 45.410156 72.710938 C 27.976562 72.710938 12.269531 66.261719 0.402344 55.546875 C -0.535156 54.703125 0.3125 53.550781 1.433594 54.21875 C 14.265625 61.660156 30.09375 66.171875 46.46875 66.171875 C 57.515625 66.171875 69.648438 63.871094 80.820312 59.148438 C 82.484375 58.390625 83.90625 60.238281 82.273438 61.453125 Z M 86.417969 56.726562 C 85.144531 55.097656 78.003906 55.941406 74.765625 56.335938 C 73.796875 56.457031 73.644531 55.609375 74.523438 54.972656 C 80.210938 50.980469 89.566406 52.128906 90.65625 53.457031 C 91.742188 54.824219 90.351562 64.175781 85.023438 68.652344 C 84.210938 69.347656 83.421875 68.984375 83.785156 68.078125 C 84.996094 65.082031 87.691406 58.335938 86.417969 56.726562 Z M 86.417969 56.726562 "/>
</g>
</svg>
