<?xml version="1.0" encoding="UTF-8"?>
<svg xmlns="http://www.w3.org/2000/svg" xmlns:xlink="http://www.w3.org/1999/xlink" width="91px" height="91px" viewBox="0 0 91 91" version="1.1">
<g id="surface1">
<path style=" stroke:none;fill-rule:nonzero;fill:rgb(0%,255%,0%);fill-opacity:1;" d="M 73.0625 39.195312 C 71.804688 39.195312 70.777344 40.21875 70.777344 41.480469 L 70.777344 78.761719 L 64.1875 78.761719 L 51.542969 52.449219 C 53.347656 50.40625 54.117188 47.574219 53.527344 44.863281 C 52.980469 42.144531 51.160156 39.855469 48.640625 38.703125 L 48.640625 35.621094 C 48.6875 34.53125 48.101562 33.425781 47.109375 32.8125 C 46.582031 32.5 46.015625 32.34375 45.4375 32.34375 C 44.863281 32.34375 44.296875 32.5 43.800781 32.792969 C 42.777344 33.425781 42.191406 34.53125 42.238281 35.699219 L 42.238281 38.433594 C 38.390625 39.824219 35.933594 43.796875 36.601562 47.984375 C 36.867188 49.707031 37.652344 51.304688 38.84375 52.574219 L 26.671875 78.761719 L 15.519531 78.761719 C 11.367188 78.734375 8.011719 75.367188 8 71.21875 L 8 19.019531 C 7.976562 23.199219 11.347656 26.605469 15.527344 26.625 C 15.695312 26.625 15.863281 26.621094 16.03125 26.613281 L 71.941406 26.613281 C 71.941406 26.613281 81.550781 25.78125 82.792969 32.449219 C 81.847656 32.558594 81.105469 33.328125 81.105469 34.300781 C 81.105469 37 78.910156 39.191406 76.164062 39.191406 L 73.0625 39.191406 Z M 65.300781 85.453125 C 66.191406 87.285156 65.425781 89.492188 63.589844 90.382812 C 63.101562 90.621094 62.582031 90.722656 62.066406 90.734375 C 61.65625 90.746094 61.246094 90.6875 60.855469 90.5625 C 60.765625 90.53125 60.683594 90.484375 60.59375 90.445312 C 60.285156 90.320312 59.992188 90.152344 59.730469 89.945312 C 59.636719 89.871094 59.542969 89.800781 59.457031 89.71875 C 59.144531 89.421875 58.859375 89.085938 58.660156 88.671875 L 53.898438 78.761719 L 47.988281 66.457031 C 47.507812 65.429688 46.472656 64.769531 45.335938 64.773438 L 45.328125 64.773438 C 44.1875 64.777344 43.144531 65.429688 42.644531 66.457031 L 36.914062 78.761719 L 32.242188 88.796875 C 31.707031 90.023438 30.546875 90.863281 29.214844 90.992188 C 28.976562 91.011719 28.746094 90.984375 28.511719 90.960938 C 28.382812 90.945312 28.25 90.9375 28.125 90.914062 C 27.9375 90.875 27.761719 90.808594 27.585938 90.742188 C 27.472656 90.699219 27.355469 90.667969 27.246094 90.613281 C 27.054688 90.519531 26.886719 90.398438 26.714844 90.277344 C 26.632812 90.214844 26.542969 90.171875 26.464844 90.105469 C 26.222656 89.898438 26.003906 89.664062 25.820312 89.40625 C 25.0625 88.300781 24.960938 86.871094 25.554688 85.671875 L 28.765625 78.761719 L 41.152344 52.101562 C 39.714844 51.039062 38.753906 49.453125 38.472656 47.6875 C 37.882812 43.972656 40.417969 40.480469 44.132812 39.890625 L 44.132812 35.621094 C 44.113281 35.136719 44.355469 34.679688 44.765625 34.425781 C 45.179688 34.179688 45.695312 34.179688 46.109375 34.425781 C 46.523438 34.679688 46.765625 35.136719 46.746094 35.621094 L 46.746094 40.015625 L 46.792969 40.039062 C 49.273438 40.722656 51.164062 42.742188 51.675781 45.265625 C 52.226562 47.800781 51.277344 50.429688 49.234375 52.027344 L 62.085938 78.761719 Z M 49.230469 46.660156 C 49.246094 44.355469 47.390625 42.472656 45.085938 42.457031 C 43.96875 42.457031 42.902344 42.894531 42.105469 43.675781 C 41.328125 44.453125 40.890625 45.503906 40.882812 46.601562 C 40.867188 48.910156 42.722656 50.789062 45.027344 50.804688 L 45.058594 50.804688 C 47.347656 50.804688 49.214844 48.957031 49.230469 46.660156 Z M 45.335938 66.667969 C 44.914062 66.671875 44.53125 66.90625 44.363281 67.257812 L 39.007812 78.761719 L 51.796875 78.761719 L 46.273438 67.261719 C 46.101562 66.898438 45.738281 66.667969 45.335938 66.667969 Z M 76.214844 41.089844 L 73.0625 41.089844 C 72.847656 41.089844 72.671875 41.265625 72.671875 41.480469 L 72.671875 90.429688 C 72.671875 90.636719 72.832031 90.808594 73.039062 90.820312 L 76.238281 90.820312 C 79.976562 90.808594 83 87.773438 83 84.035156 L 83 34.300781 C 83 38.050781 79.960938 41.089844 76.214844 41.089844 Z M 9.894531 19.019531 L 9.894531 19.089844 C 9.910156 22.183594 12.441406 24.714844 15.535156 24.730469 C 15.699219 24.722656 15.867188 24.71875 16.03125 24.714844 L 20.3125 24.714844 C 21.058594 19.730469 23.195312 15.140625 26.523438 11.5 L 15.542969 11.5 C 12.03125 11.511719 9.109375 13.925781 8.265625 17.175781 C 9.183594 17.3125 9.894531 18.066406 9.894531 19.019531 Z M 33.925781 8.03125 L 29.996094 1.246094 C 29.847656 0.988281 29.847656 0.671875 29.996094 0.414062 C 30.152344 0.171875 30.414062 0.015625 30.703125 0 C 30.996094 0.00390625 31.265625 0.160156 31.414062 0.414062 L 35.390625 7.300781 C 41.804688 4.417969 49.144531 4.417969 55.558594 7.300781 L 59.515625 0.414062 C 59.773438 0.0976562 60.226562 0.015625 60.578125 0.222656 C 60.933594 0.429688 61.082031 0.863281 60.929688 1.246094 L 57.023438 8.03125 C 63.34375 11.492188 67.628906 17.675781 68.769531 24.722656 L 22.183594 24.714844 C 23.324219 17.675781 27.609375 11.492188 33.925781 8.03125 Z M 54.316406 17.96875 C 54.34375 19.046875 55.238281 19.898438 56.316406 19.875 C 57.394531 19.875 58.269531 19 58.269531 17.921875 C 58.265625 17.125 57.78125 16.410156 57.046875 16.105469 C 56.3125 15.800781 55.464844 15.96875 54.898438 16.527344 C 54.515625 16.90625 54.304688 17.429688 54.316406 17.96875 Z M 32.636719 17.941406 C 32.648438 19.019531 33.53125 19.886719 34.609375 19.875 C 35.132812 19.882812 35.632812 19.679688 36.003906 19.3125 C 36.582031 18.835938 36.84375 18.066406 36.671875 17.335938 C 36.5 16.601562 35.929688 16.03125 35.195312 15.859375 C 34.464844 15.6875 33.699219 15.949219 33.21875 16.527344 C 32.839844 16.902344 32.632812 17.410156 32.636719 17.941406 Z M 32.636719 17.941406 "/>
</g>
</svg>
