<?xml version="1.0" encoding="UTF-8"?>
<svg xmlns="http://www.w3.org/2000/svg" xmlns:xlink="http://www.w3.org/1999/xlink" width="91px" height="91px" viewBox="0 0 91 91" version="1.1">
<g id="surface1">
<path style=" stroke:none;fill-rule:nonzero;fill:rgb(255%,202%,40%);fill-opacity:1;" d="M 14.75 59.421875 L 23.71875 1.746094 C 23.234375 8.296875 17.535156 13.214844 10.984375 12.730469 C 4.433594 12.25 -0.484375 6.550781 0 0 L 9.640625 18.089844 Z M 78.425781 73.421875 L 69.894531 20.339844 C 64.277344 20.648438 59.476562 16.34375 59.167969 10.730469 C 58.859375 5.113281 63.160156 0.308594 68.777344 0 L 12.574219 73.425781 L 42.359375 90.210938 C 67.273438 97.507812 93.378906 83.226562 100.675781 58.3125 C 107.96875 33.402344 93.6875 7.292969 68.777344 0 Z M 54.222656 27.097656 L 47.320312 13.894531 C 43.484375 13.894531 40.371094 10.785156 40.371094 6.949219 C 40.371094 3.109375 43.484375 0 47.320312 0 L 13.382812 68.1875 Z M 54.222656 27.097656 "/>
</g>
</svg>
