<?xml version="1.0" encoding="UTF-8"?>
<svg xmlns="http://www.w3.org/2000/svg" xmlns:xlink="http://www.w3.org/1999/xlink" width="91px" height="91px" viewBox="0 0 91 91" version="1.1">
<g id="surface1">
<path style=" stroke:none;fill-rule:nonzero;fill:rgb(255%,255%,255%);fill-opacity:1;" d="M 45.492188 91 C 44.273438 91 43.0625 90.679688 41.996094 90.0625 L 30.863281 83.476562 C 29.203125 82.546875 30.015625 82.21875 30.5625 82.023438 C 32.777344 81.253906 33.226562 81.078125 35.597656 79.734375 C 35.84375 79.59375 36.167969 79.648438 36.421875 79.800781 L 44.976562 84.875 C 45.289062 85.046875 45.722656 85.046875 46.007812 84.875 L 79.355469 65.628906 C 79.667969 65.453125 79.863281 65.09375 79.863281 64.726562 L 79.863281 26.242188 C 79.863281 25.867188 79.664062 25.515625 79.34375 25.324219 L 46.011719 6.09375 C 45.703125 5.914062 45.296875 5.914062 44.984375 6.09375 L 11.660156 25.328125 C 11.335938 25.515625 11.132812 25.878906 11.132812 26.242188 L 11.132812 64.726562 C 11.132812 65.09375 11.335938 65.445312 11.660156 65.617188 L 20.792969 70.898438 C 25.75 73.375 28.785156 70.457031 28.785156 67.523438 L 28.785156 29.527344 C 28.785156 28.988281 29.21875 28.566406 29.757812 28.566406 L 33.984375 28.566406 C 34.511719 28.566406 34.953125 28.992188 34.953125 29.527344 L 34.953125 67.523438 C 34.953125 74.136719 31.347656 77.929688 25.078125 77.929688 C 23.152344 77.929688 21.632812 77.929688 17.394531 75.839844 L 8.644531 70.808594 C 6.484375 69.5625 5.148438 67.226562 5.148438 64.726562 L 5.148438 26.242188 C 5.148438 23.742188 6.488281 21.40625 8.644531 20.164062 L 41.992188 0.894531 C 44.105469 -0.300781 46.90625 -0.300781 49 0.894531 L 82.34375 20.164062 C 84.503906 21.410156 85.847656 23.742188 85.847656 26.242188 L 85.847656 64.726562 C 85.847656 67.226562 84.503906 69.554688 82.34375 70.808594 L 49 90.0625 C 47.9375 90.679688 46.726562 91 45.492188 91 Z M 72.417969 53.058594 C 72.417969 45.851562 67.546875 43.933594 57.300781 42.582031 C 46.945312 41.210938 45.890625 40.503906 45.890625 38.078125 C 45.890625 36.078125 46.78125 33.40625 54.453125 33.40625 C 61.304688 33.40625 63.828125 34.878906 64.867188 39.496094 C 64.957031 39.933594 65.355469 40.253906 65.804688 40.253906 L 70.128906 40.253906 C 70.398438 40.253906 70.652344 40.136719 70.835938 39.945312 C 71.019531 39.742188 71.117188 39.480469 71.089844 39.203125 C 70.417969 31.246094 65.132812 27.539062 54.453125 27.539062 C 44.941406 27.539062 39.269531 31.550781 39.269531 38.28125 C 39.269531 45.578125 44.914062 47.597656 54.039062 48.5 C 64.957031 49.570312 65.804688 51.164062 65.804688 53.3125 C 65.804688 57.039062 62.8125 58.625 55.785156 58.625 C 46.964844 58.625 45.023438 56.414062 44.371094 52.023438 C 44.292969 51.550781 43.890625 51.207031 43.410156 51.207031 L 39.101562 51.207031 C 38.566406 51.207031 38.136719 51.632812 38.136719 52.164062 C 38.136719 57.785156 41.191406 64.480469 55.785156 64.480469 C 66.359375 64.484375 72.417969 60.324219 72.417969 53.058594 Z M 72.417969 53.058594 "/>
</g>
</svg>
