<?xml version="1.0" encoding="UTF-8"?>
<svg xmlns="http://www.w3.org/2000/svg" xmlns:xlink="http://www.w3.org/1999/xlink" width="91px" height="91px" viewBox="0 0 150 150" version="1.1">
<g id="surface1">
<path style=" stroke:none;fill-rule:nonzero;fill:rgb(15%,87%,147%);fill-opacity:1;" d="M 89.0625 1.125 L 94.6875 2.375 L 99.25 4 L 102.9375 5.875 L 105.75 7.875 L 107.875 10 L 109.4375 12.125 L 110.4375 14.1875 L 111.0625 16.0625 L 111.3125 17.6875 L 111.4375 18.9375 L 111.375 19.75 L 111.375 53.125 L 111.0625 57.0625 L 110.25 60.5 L 108.9375 63.375 L 107.3125 65.75 L 105.4375 67.6875 L 103.375 69.25 L 101.1875 70.4375 L 99 71.3125 L 96.9375 71.9375 L 95.0625 72.375 L 93.4375 72.625 L 92.125 72.75 L 54.8125 72.75 L 50.5 73.0625 L 46.8125 73.9375 L 43.6875 75.3125 L 41.125 77 L 39.0625 79 L 37.375 81.1875 L 36.125 83.4375 L 35.1875 85.75 L 34.5625 87.9375 L 34.125 89.9375 L 33.875 91.625 L 33.75 92.9375 L 33.75 112.0625 L 19.8125 112.0625 L 18.5 111.875 L 16.75 111.4375 L 14.75 110.6875 L 12.5625 109.5625 L 10.3125 107.9375 L 8.0625 105.6875 L 5.875 102.8125 L 3.875 99.125 L 2.125 94.5625 L 0.8125 89.0625 L -0.0625 82.5 L -0.375 74.8125 L 0 67.1875 L 1 60.6875 L 2.5 55.25 L 4.5 50.8125 L 6.75 47.25 L 9.25 44.5 L 11.875 42.4375 L 14.5 40.9375 L 17 39.9375 L 19.25 39.3125 L 21.25 39 L 22.75 38.9375 L 23.75 38.9375 L 24.125 39 L 75.125 39 L 75.125 33.8125 L 38.625 33.8125 L 38.5625 16.625 L 38.4375 14.3125 L 38.75 12.1875 L 39.4375 10.25 L 40.5 8.5 L 42.0625 6.875 L 44 5.4375 L 46.375 4.1875 L 49.125 3.0625 L 52.3125 2.125 L 55.9375 1.375 L 59.9375 0.75 L 64.375 0.375 L 69.1875 0.125 L 74.4375 0 L 82.375 0.3125 Z M 49.6875 13.5 L 48.25 15.5625 L 47.75 18.125 L 48.25 20.6875 L 49.6875 22.8125 L 51.75 24.1875 L 54.3125 24.75 L 56.875 24.1875 L 58.9375 22.8125 L 60.375 20.6875 L 60.875 18.125 L 60.375 15.5625 L 58.9375 13.5 L 56.875 12.125 L 54.3125 11.5625 L 51.75 12.125 Z M 131.5 38.1875 L 133.25 38.5625 L 135.25 39.3125 L 137.4375 40.4375 L 139.6875 42.125 L 141.9375 44.3125 L 144.125 47.25 L 146.125 50.9375 L 147.875 55.5 L 149.1875 61 L 150.0625 67.5 L 150.375 75.1875 L 150 82.875 L 149 89.375 L 147.5 94.75 L 145.5 99.1875 L 143.25 102.75 L 140.75 105.5625 L 138.125 107.625 L 135.5 109.125 L 133 110.125 L 130.75 110.6875 L 128.75 111 L 127.25 111.125 L 126.25 111.0625 L 74.875 111.0625 L 74.875 116.1875 L 111.375 116.1875 L 111.4375 133.4375 L 111.5625 135.6875 L 111.25 137.8125 L 110.5625 139.75 L 109.5 141.5625 L 107.9375 143.125 L 106 144.625 L 103.625 145.875 L 100.875 146.9375 L 97.6875 147.875 L 94.0625 148.6875 L 90.0625 149.25 L 85.625 149.6875 L 80.8125 149.9375 L 75.5625 150 L 67.625 149.75 L 60.9375 148.875 L 55.3125 147.625 L 50.75 146.0625 L 47.0625 144.1875 L 44.25 142.125 L 42.125 140 L 40.5625 137.875 L 39.5625 135.8125 L 38.9375 133.9375 L 38.6875 132.375 L 38.5625 131.125 L 38.625 130.3125 L 38.625 96.9375 L 38.9375 92.9375 L 39.75 89.5625 L 41.0625 86.6875 L 42.6875 84.3125 L 44.5625 82.3125 L 46.625 80.8125 L 48.8125 79.5625 L 51 78.6875 L 53.0625 78.0625 L 54.9375 77.6875 L 56.5625 77.4375 L 57.875 77.3125 L 58.6875 77.25 L 95.1875 77.25 L 99.5 76.9375 L 103.1875 76.0625 L 106.3125 74.75 L 108.875 73 L 110.9375 71 L 112.625 68.8125 L 113.875 66.5625 L 114.8125 64.3125 L 115.4375 62.125 L 115.875 60.125 L 116.125 58.375 L 116.25 57.0625 L 116.25 37.9375 L 129.3125 37.9375 L 130.1875 38 Z M 91.0625 127.25 L 89.625 129.3125 L 89.125 131.875 L 89.625 134.4375 L 91.0625 136.5 L 93.125 137.9375 L 95.6875 138.4375 L 98.25 137.9375 L 100.3125 136.5 L 101.75 134.4375 L 102.25 131.875 L 101.75 129.3125 L 100.3125 127.25 L 98.25 125.8125 L 95.6875 125.3125 L 93.125 125.8125 Z M 91.0625 127.25 "/>
</g>
</svg>
