<?xml version="1.0" encoding="UTF-8"?>
<svg xmlns="http://www.w3.org/2000/svg" xmlns:xlink="http://www.w3.org/1999/xlink" width="91px" height="91px" viewBox="0 0 91 91" version="1.1">
<g id="surface1">
<path style=" stroke:none;fill-rule:nonzero;fill:rgb(247%,147%,30%);fill-opacity:1;" d="M 59.152344 20.96875 C 51.910156 21.101562 44.058594 24.417969 37.808594 30.675781 C 26.695312 41.785156 29.910156 63.015625 33.679688 66.789062 C 36.734375 69.839844 58.6875 73.777344 69.800781 62.664062 C 70.574219 61.886719 71.3125 61.070312 72.015625 60.226562 C 72.179688 59.121094 72.792969 57.722656 73.871094 56.035156 C 73.230469 56.359375 72.542969 56.582031 71.832031 56.699219 C 71.289062 57.707031 70.429688 58.785156 69.269531 59.941406 C 67.925781 61.210938 66.96875 62.042969 66.386719 62.429688 C 65.90625 62.78125 65.328125 62.984375 64.730469 63.007812 C 63.402344 63.007812 62.78125 61.839844 62.859375 59.503906 C 62.023438 60.699219 61.246094 61.585938 60.539062 62.15625 C 59.929688 62.6875 59.152344 62.988281 58.347656 63.007812 C 57.609375 63.007812 56.980469 62.664062 56.464844 61.972656 C 56.054688 61.40625 55.800781 60.742188 55.734375 60.046875 C 54.90625 60.890625 53.980469 61.632812 52.980469 62.257812 C 52.132812 62.757812 51.199219 63.007812 50.175781 63.007812 C 49.039062 63.007812 48.117188 62.640625 47.417969 61.914062 C 46.898438 61.367188 46.558594 60.671875 46.445312 59.925781 L 46.445312 59.941406 C 45.304688 60.988281 44.304688 61.761719 43.449219 62.257812 C 42.710938 62.722656 41.859375 62.980469 40.988281 63.007812 C 40.140625 63.027344 39.335938 62.640625 38.824219 61.964844 C 38.273438 61.269531 37.996094 60.332031 37.996094 59.160156 C 37.996094 57.402344 38.378906 55.292969 39.140625 52.828125 C 39.902344 50.363281 40.828125 48.089844 41.921875 46.015625 L 45.113281 44.832031 C 45.1875 44.804688 45.261719 44.789062 45.339844 44.785156 C 45.578125 44.785156 45.78125 44.960938 45.9375 45.3125 C 46.085938 45.675781 46.167969 46.152344 46.167969 46.753906 C 46.167969 48.464844 45.773438 50.121094 44.984375 51.722656 C 44.199219 53.320312 42.96875 55.03125 41.292969 56.847656 C 41.222656 57.71875 41.1875 58.320312 41.1875 58.644531 C 41.1875 59.378906 41.324219 59.953125 41.589844 60.382812 C 41.859375 60.8125 42.214844 61.023438 42.660156 61.023438 C 43.179688 61.003906 43.683594 60.832031 44.109375 60.53125 C 44.609375 60.210938 45.371094 59.542969 46.390625 58.546875 C 46.496094 56.960938 47.101562 55.519531 48.21875 54.21875 C 49.445312 52.777344 50.816406 52.058594 52.3125 52.058594 C 53.09375 52.058594 53.714844 52.265625 54.1875 52.667969 C 54.652344 53.058594 54.910156 53.640625 54.890625 54.246094 C 54.890625 55.984375 53.050781 57.390625 49.359375 58.472656 C 49.695312 60.101562 50.574219 60.921875 51.988281 60.921875 C 52.546875 60.917969 53.09375 60.765625 53.570312 60.476562 C 54.058594 60.1875 54.785156 59.554688 55.75 58.59375 C 55.871094 57.636719 56.195312 56.714844 56.730469 55.832031 C 57.421875 54.695312 58.308594 53.769531 59.390625 53.0625 C 60.46875 52.363281 61.425781 52.011719 62.253906 52.011719 C 63.300781 52.011719 64.039062 52.492188 64.453125 53.453125 L 67.023438 52.035156 L 67.726562 52.035156 L 66.621094 55.71875 C 66.050781 57.570312 65.761719 58.839844 65.761719 59.523438 C 65.761719 60.246094 66.015625 60.605469 66.527344 60.605469 C 66.855469 60.605469 67.214844 60.433594 67.609375 60.085938 C 68.003906 59.738281 68.558594 59.207031 69.265625 58.492188 L 69.265625 58.496094 C 69.808594 57.910156 70.304688 57.285156 70.753906 56.625 C 70.03125 56.304688 69.671875 55.828125 69.671875 55.203125 C 69.671875 54.558594 69.890625 53.867188 70.332031 53.136719 C 70.769531 52.402344 71.375 52.035156 72.148438 52.035156 C 72.800781 52.035156 73.125 52.371094 73.125 53.042969 C 73.125 53.570312 72.9375 54.324219 72.5625 55.300781 C 73.953125 55.148438 75.164062 54.089844 76.203125 52.109375 L 77.070312 52.070312 C 81.085938 42.828125 80.207031 32.828125 73.921875 26.546875 C 70.058594 22.679688 64.792969 20.859375 59.152344 20.96875 Z M 77.070312 52.070312 C 75.78125 55.015625 74.078125 57.761719 72.015625 60.226562 C 71.988281 60.410156 71.972656 60.597656 71.96875 60.785156 C 71.96875 61.421875 72.148438 61.957031 72.5 62.386719 C 72.847656 62.816406 73.28125 63.03125 73.789062 63.03125 C 74.910156 63.03125 76.496094 62.03125 78.542969 60.046875 C 78.539062 60.199219 78.53125 60.351562 78.53125 60.507812 C 78.53125 61.0625 78.578125 61.902344 78.667969 63.03125 L 81.449219 62.378906 C 81.449219 61.621094 81.460938 61.027344 81.488281 60.582031 C 81.523438 59.988281 81.613281 59.332031 81.738281 58.621094 C 81.8125 58.207031 82.003906 57.804688 82.3125 57.429688 L 83.019531 56.609375 C 83.46875 56.082031 83.949219 55.582031 84.453125 55.105469 C 84.6875 54.894531 84.890625 54.730469 85.066406 54.613281 C 85.203125 54.515625 85.363281 54.453125 85.53125 54.4375 C 85.742188 54.4375 85.847656 54.570312 85.847656 54.839844 C 85.847656 55.105469 85.648438 55.734375 85.253906 56.722656 C 84.519531 58.566406 84.148438 59.9375 84.148438 60.832031 C 84.148438 61.496094 84.324219 62.023438 84.664062 62.417969 C 85.003906 62.808594 85.503906 63.027344 86.023438 63.007812 C 87.40625 63.007812 89.066406 61.984375 91 59.941406 L 91 58.496094 C 89.632812 60.113281 88.636719 60.925781 88.027344 60.925781 C 87.613281 60.925781 87.410156 60.671875 87.410156 60.167969 C 87.410156 59.785156 87.65625 58.96875 88.148438 57.703125 C 88.867188 55.859375 89.230469 54.53125 89.230469 53.726562 C 89.246094 53.285156 89.09375 52.855469 88.804688 52.519531 C 88.539062 52.207031 88.144531 52.027344 87.734375 52.035156 C 87.109375 52.035156 86.394531 52.328125 85.585938 52.921875 C 84.777344 53.511719 83.691406 54.574219 82.3125 56.105469 C 82.515625 55.113281 82.9375 53.746094 83.582031 52.011719 L 80.515625 52.601562 C 79.894531 53.914062 79.386719 55.273438 79.003906 56.675781 C 78.851562 57.265625 78.738281 57.871094 78.65625 58.492188 C 78.0625 59.089844 77.441406 59.660156 76.796875 60.199219 C 76.546875 60.394531 76.242188 60.5 75.929688 60.503906 C 75.671875 60.515625 75.425781 60.398438 75.269531 60.191406 C 75.09375 59.949219 75.007812 59.652344 75.027344 59.351562 C 75.027344 58.972656 75.097656 58.539062 75.238281 58.050781 C 75.382812 57.558594 75.691406 56.636719 76.183594 55.277344 L 77.351562 52.058594 Z M 11.816406 40.972656 C 8.542969 40.910156 5.484375 41.96875 3.242188 44.210938 C -1.882812 49.335938 -0.816406 58.722656 5.632812 65.167969 C 12.082031 71.617188 24.402344 69.753906 26.589844 67.5625 C 28.363281 65.796875 30.648438 53.054688 24.199219 46.605469 C 20.570312 42.980469 16.015625 41.050781 11.8125 40.972656 Z M 58.394531 42.332031 L 59.023438 42.332031 L 59.023438 43.125 L 58.390625 43.125 Z M 60.015625 42.332031 L 60.644531 42.332031 L 60.644531 45.609375 L 62.386719 43.882812 L 63.128906 43.882812 L 61.746094 45.257812 L 63.371094 47.851562 L 62.621094 47.851562 L 61.265625 45.671875 L 60.644531 46.300781 L 60.644531 47.855469 L 60.015625 47.855469 Z M 63.867188 42.332031 L 64.496094 42.332031 L 64.496094 43.125 L 63.867188 43.125 Z M 65.691406 42.792969 L 66.320312 42.792969 L 66.320312 43.882812 L 66.972656 43.882812 L 66.972656 44.398438 L 66.320312 44.398438 L 66.320312 47.117188 C 66.320312 47.253906 66.34375 47.351562 66.394531 47.398438 C 66.441406 47.449219 66.535156 47.476562 66.675781 47.476562 C 66.777344 47.480469 66.875 47.46875 66.972656 47.4375 L 66.972656 47.972656 C 66.800781 48.003906 66.628906 48.023438 66.457031 48.023438 C 66.253906 48.039062 66.050781 47.980469 65.886719 47.863281 C 65.753906 47.746094 65.679688 47.574219 65.691406 47.394531 L 65.691406 44.402344 L 65.15625 44.402344 L 65.15625 43.882812 L 65.691406 43.882812 Z M 52.183594 43.769531 C 52.492188 43.769531 52.753906 43.816406 52.96875 43.914062 C 53.1875 44.007812 53.347656 44.144531 53.460938 44.332031 C 53.578125 44.519531 53.632812 44.734375 53.632812 44.988281 L 52.964844 44.988281 C 52.941406 44.566406 52.679688 44.355469 52.175781 44.355469 C 51.957031 44.34375 51.742188 44.398438 51.554688 44.511719 C 51.40625 44.609375 51.320312 44.777344 51.328125 44.953125 C 51.328125 45.085938 51.382812 45.199219 51.5 45.289062 C 51.613281 45.378906 51.800781 45.453125 52.066406 45.515625 L 52.675781 45.664062 C 52.988281 45.71875 53.28125 45.855469 53.523438 46.0625 C 53.703125 46.234375 53.789062 46.46875 53.789062 46.765625 C 53.792969 47.003906 53.722656 47.234375 53.589844 47.429688 C 53.449219 47.628906 53.246094 47.785156 53.015625 47.871094 C 52.742188 47.976562 52.453125 48.03125 52.15625 48.023438 C 51.640625 48.023438 51.25 47.910156 50.988281 47.691406 C 50.726562 47.46875 50.589844 47.125 50.574219 46.671875 L 51.242188 46.671875 C 51.253906 46.8125 51.277344 46.917969 51.304688 46.988281 C 51.335938 47.066406 51.378906 47.136719 51.433594 47.195312 C 51.601562 47.359375 51.859375 47.441406 52.207031 47.441406 C 52.441406 47.453125 52.675781 47.394531 52.878906 47.269531 C 53.035156 47.175781 53.132812 47.003906 53.132812 46.820312 C 53.136719 46.691406 53.085938 46.566406 52.988281 46.476562 C 52.851562 46.371094 52.691406 46.300781 52.519531 46.269531 L 51.925781 46.125 C 51.722656 46.074219 51.519531 46.011719 51.324219 45.9375 C 51.1875 45.878906 51.0625 45.800781 50.953125 45.703125 C 50.855469 45.617188 50.78125 45.511719 50.734375 45.390625 C 50.6875 45.257812 50.667969 45.121094 50.671875 44.980469 C 50.671875 44.617188 50.808594 44.320312 51.085938 44.101562 C 51.402344 43.867188 51.792969 43.75 52.183594 43.769531 Z M 56.109375 43.769531 C 56.375 43.765625 56.636719 43.824219 56.875 43.933594 C 57.214844 44.089844 57.472656 44.382812 57.585938 44.738281 C 57.628906 44.894531 57.660156 45.054688 57.671875 45.214844 L 57.035156 45.214844 C 57.019531 44.972656 56.914062 44.746094 56.738281 44.578125 C 56.5625 44.421875 56.328125 44.339844 56.09375 44.351562 C 55.882812 44.347656 55.675781 44.414062 55.507812 44.539062 C 55.328125 44.683594 55.199219 44.871094 55.128906 45.085938 C 55.035156 45.359375 54.992188 45.648438 55 45.9375 C 54.992188 46.210938 55.035156 46.488281 55.128906 46.746094 C 55.207031 46.953125 55.339844 47.128906 55.515625 47.257812 C 55.6875 47.382812 55.894531 47.445312 56.109375 47.441406 C 56.648438 47.441406 56.96875 47.121094 57.078125 46.484375 L 57.714844 46.484375 C 57.695312 46.777344 57.609375 47.0625 57.464844 47.320312 C 57.335938 47.542969 57.144531 47.726562 56.914062 47.84375 C 56.660156 47.96875 56.378906 48.03125 56.09375 48.023438 C 55.765625 48.035156 55.441406 47.945312 55.160156 47.773438 C 54.890625 47.597656 54.679688 47.34375 54.550781 47.046875 C 54.398438 46.695312 54.328125 46.316406 54.335938 45.9375 C 54.335938 45.613281 54.371094 45.316406 54.457031 45.050781 C 54.527344 44.800781 54.652344 44.566406 54.816406 44.363281 C 54.96875 44.171875 55.164062 44.019531 55.386719 43.917969 C 55.613281 43.816406 55.859375 43.765625 56.109375 43.765625 Z M 58.394531 43.882812 L 59.023438 43.882812 L 59.023438 47.851562 L 58.390625 47.851562 Z M 63.867188 43.882812 L 64.496094 43.882812 L 64.496094 47.851562 L 63.867188 47.851562 Z M 44.71875 46.226562 C 44.414062 46.226562 43.960938 47 43.367188 48.542969 C 42.78125 50.089844 42.203125 52.25 41.628906 55.027344 C 42.695312 53.84375 43.558594 52.519531 44.21875 51.046875 C 44.882812 49.578125 45.210938 48.316406 45.210938 47.257812 C 45.222656 47.003906 45.175781 46.75 45.074219 46.511719 C 44.980469 46.324219 44.863281 46.226562 44.722656 46.226562 Z M 62.394531 53.042969 C 61.558594 53.042969 60.761719 53.753906 60.011719 55.175781 C 59.265625 56.601562 58.886719 57.914062 58.886719 59.113281 C 58.886719 59.566406 59 59.929688 59.222656 60.210938 C 59.417969 60.480469 59.734375 60.636719 60.066406 60.632812 C 60.90625 60.632812 61.699219 59.917969 62.4375 58.492188 C 63.179688 57.0625 63.550781 55.742188 63.550781 54.535156 C 63.574219 54.144531 63.464844 53.757812 63.238281 53.4375 C 63.035156 53.175781 62.722656 53.03125 62.394531 53.042969 Z M 51.597656 53.066406 C 51.042969 53.066406 50.515625 53.484375 50.015625 54.332031 C 49.511719 55.171875 49.257812 56.265625 49.257812 57.613281 C 51.402344 57.011719 52.476562 55.902344 52.476562 54.273438 C 52.476562 53.46875 52.183594 53.066406 51.597656 53.066406 Z M 51.597656 53.066406 "/>
</g>
</svg>
