<?xml version="1.0" encoding="UTF-8"?>
<svg xmlns="http://www.w3.org/2000/svg" xmlns:xlink="http://www.w3.org/1999/xlink" width="91px" height="91px" viewBox="0 0 91 91" version="1.1">
<g id="surface1">
<path style=" stroke:none;fill-rule:nonzero;fill:rgb(255%,255%,255%);fill-opacity:1;" d="M 82.863281 5.367188 C 81.597656 8.398438 79.964844 11.261719 77.992188 13.886719 C 66.511719 2.015625 49.484375 -2.679688 33.539062 1.628906 C 17.59375 5.941406 5.25 18.574219 1.3125 34.617188 C -2.625 50.660156 2.464844 67.570312 14.605469 78.773438 L 16.289062 80.273438 C 29.332031 91.269531 47.445312 94.015625 63.15625 87.375 C 78.871094 80.734375 89.527344 65.832031 90.726562 48.8125 C 92.039062 37.390625 88.574219 22.785156 82.863281 5.367188 Z M 21.160156 79.148438 C 19.816406 80.800781 17.386719 81.050781 15.734375 79.707031 C 14.082031 78.363281 13.832031 75.9375 15.171875 74.28125 C 16.515625 72.628906 18.945312 72.375 20.597656 73.71875 C 22.210938 75.085938 22.460938 77.480469 21.160156 79.148438 Z M 82.582031 65.574219 C 71.4375 80.460938 47.46875 75.402344 32.207031 76.152344 C 32.207031 76.152344 29.492188 76.339844 26.777344 76.714844 C 26.777344 76.714844 27.808594 76.246094 29.117188 75.777344 C 39.886719 72.035156 44.941406 71.285156 51.496094 67.914062 C 63.761719 61.640625 76.027344 47.875 78.460938 33.644531 C 73.78125 47.316406 59.546875 59.113281 46.625 63.886719 C 37.730469 67.164062 21.722656 70.347656 21.722656 70.347656 L 21.066406 69.972656 C 10.203125 64.636719 9.832031 41.042969 29.679688 33.457031 C 38.386719 30.085938 46.625 31.960938 56.082031 29.710938 C 66.101562 27.371094 77.710938 19.878906 82.394531 10.050781 C 87.636719 25.875 94.003906 50.40625 82.582031 65.574219 Z M 82.582031 65.574219 "/>
</g>
</svg>
